<?xml version="1.0" encoding="UTF-8" standalone="no"?>
<svg width="446px" height="260px" viewBox="0 0 446 260" version="1.1" xmlns="http://www.w3.org/2000/svg" xmlns:xlink="http://www.w3.org/1999/xlink" xmlns:sketch="http://www.bohemiancoding.com/sketch/ns">
    <title>Slice 1</title>
    <description>Created with Sketch (http://www.bohemiancoding.com/sketch)</description>
    <defs></defs>
    <g id="Page-1" stroke="none" stroke-width="1" fill="none" fill-rule="evenodd" sketch:type="MSPage">
        <g id="branding" sketch:type="MSLayerGroup" transform="translate(-356.000000, -163.000000)" fill="#007EC0">
            <g id="Group" transform="translate(357.000000, 163.000000)" sketch:type="MSShapeGroup">
                <path d="M129.627,0.02 C159.761,0.02 189.896,-0.046 220.027,0.063 C228.339,0.063 236.127,2.263 242.927,7.263 C252.103,14.063 257.627,23.063 258.627,34.586 C258.9,37.786 259.027,41.086 259.027,44.347 C259.06,72.047 259.027,99.747 259.027,127.447 C259.027,128.447 259.027,129.456 259.013,130.46 C258.919,134.004 257.436,135.739 254.25,136.057 C251.084,136.373 248.878,134.814 248.19,131.49 C246.911,125.309 246.036,119.033 244.508,112.918 C239.599,93.281 230.073,76.245 215.077,62.485 C200.232,48.863 182.761,40.547 162.959,36.963 C154.218,35.381 145.417,34.727 136.578,35.171 C107.702,36.621 82.627,46.821 62.727,68.246 C49.117,82.9 40.708,100.304 37.145,119.946 C36,126.259 35.485,132.73 35.213,139.151 C34.394,158.551 38.413,176.951 47.513,194.006 C61.758,220.706 83.813,237.706 113.113,245.206 C118.79,246.606 124.613,247.406 130.413,248.285 C133.89,248.785 135.913,250.485 136.113,253.238 C136.302,256.948 134.61,258.855 130.743,259.238 C130.37,259.279 129.99,259.266 129.614,259.266 C99.354,259.264 69.093,259.395 38.835,259.208 C20.405,259.094 7.13,247.831 2.097,233.355 C0.416,228.522 -0.043,223.466 -0.042,218.358 C0.019,159.2 -6.66133815e-15,100.1 -6.66133815e-15,40.938 C-0.005,31.326 2.035,22.395 8.234,14.782 C15.224,6.198 24.155,1.149 35.299,0.382 C39.109,0.12 42.937,0.034 46.758,0.03 C74.381,0.002 102.004,0.015 129.628,0.015 C129.627,1.26981758e-14 129.6,1.26981758e-14 129.6,0.02 L129.627,0.02 Z" id="Shape"></path>
                <path d="M87.475,184.199 C87.476,177.676 87.464,171.152 87.48,164.629 C87.49,160.594 89.432,158.645 93.495,158.625 C98.826,158.598 104.161,158.501 109.495,158.645 C121.744,158.945 128.695,165.745 130.495,177.993 C131.305,183.493 131.195,188.971 129.786,194.393 C127.274,203.87 119.972,209.534 110.148,209.56 C104.566,209.575 98.983,209.57 93.401,209.563 C89.267,209.558 87.501,207.779 87.492,203.584 C87.464,197.1 87.5,190.7 87.5,184.199 L87.475,184.199 Z M98.472,184.28 L98.472,191.427 C98.472,193.827 98.472,196.318 98.455,198.727 C98.427,199.927 98.755,200.427 100.055,200.418 C102.937,200.343 105.855,200.418 108.705,200.362 C113.475,200.199 116.886,197.677 118.432,193.144 C120.461,187.196 120.374,181.198 118.307,175.299 C116.904,171.294 114.141,168.556 109.744,168.119 C106.639,167.81 103.495,167.903 100.371,167.757 C98.881,167.688 98.459,168.317 98.482,169.764 C98.522,174.6 98.5,179.5 98.5,184.28 L98.472,184.28 Z" id="Shape"></path>
                <path d="M435.772,190.27 C437.773,193.57 439.672,196.77 441.672,200.02 C442.157,200.82 442.672,201.62 443.172,202.42 C444.567,205.02 443.872,208.091 441.683,209.397 C439.316,210.797 435.582,210.011 434.18,207.64 C431.468,203.055 428.816,198.431 426.274,193.751 C425.483,192.295 424.613,191.642 422.914,191.768 C420.729,191.929 418.513,191.943 416.33,191.767 C414.329,191.605 413.869,192.433 413.93,194.267 C414.04,197.527 413.87,200.767 414.03,204.056 C414.185,208.539 411.745,210.068 408.576,210.228 C405.225,210.397 403.06,207.897 402.963,204.059 C402.918,202.303 402.954,200.545 402.954,198.787 L402.954,166.591 C402.954,166.089 402.931,165.585 402.963,165.085 C403.25,160.566 405.263,158.646 409.779,158.633 C415.741,158.616 421.706,158.52 427.679,158.666 C431.99,158.766 436.079,159.666 439.479,162.666 C446.587,168.766 446.079,184.241 437.218,189.325 C436.753,189.5 436.4,189.8 435.8,190.27 L435.772,190.27 Z M413.894,175 L413.886,175 C413.886,177 413.886,179.013 413.875,181.018 C413.848,182.318 414.275,183.018 415.675,183.018 C419.364,182.898 423.064,182.947 426.742,182.686 C430.637,182.409 433.072,179.414 433.136,175.209 C433.198,171.089 430.898,168.1 426.994,167.766 C423.135,167.436 419.244,167.495 415.368,167.364 C414.189,167.324 413.847,167.975 413.853,169.01 C413.903,171 413.9,173 413.9,175.034 L413.894,175 Z" id="Shape"></path>
                <path d="M360.228,184.169 C360.228,177.828 360.213,171.488 360.233,165.147 C360.248,160.601 362.24,158.629 366.813,158.621 C374.974,158.608 383.135,158.598 391.313,158.628 C394.878,158.628 396.513,160.228 396.513,163.363 C396.474,166.073 394.964,167.685 392.185,167.763 C386.097,167.84 380.007,167.82 373.918,167.843 C371.261,167.853 371.258,167.857 371.255,170.58 C371.252,172.88 371.355,175.232 371.22,177.58 C371.107,179.38 371.82,179.78 373.52,179.795 C378.792,179.723 384.067,179.735 389.32,179.806 C392.458,179.806 393.92,181.406 393.92,184.506 C393.867,187.041 392.555,188.502 389.975,188.545 C384.578,188.635 379.178,188.594 373.78,188.615 C371.305,188.625 371.303,188.635 371.298,191.115 C371.294,193.515 371.398,195.891 371.266,198.27 C371.18,199.97 371.666,200.57 373.466,200.53 C379.428,200.427 385.393,200.481 391.357,200.503 C392.162,200.503 392.957,200.603 393.757,200.772 C396.388,201.372 397.257,202.872 396.957,206.049 C396.764,208.197 395.291,209.572 392.849,209.549 C383.621,209.594 374.392,209.607 365.164,209.543 C362.221,209.523 360.319,207.277 360.299,203.966 C360.259,197.375 360.287,190.783 360.287,184.191 C360.234,184.2 360.2,184.2 360.2,184.169 L360.228,184.169 Z" id="Shape"></path>
                <path d="M247.996,184.595 C247.995,178.32 247.989,172.045 247.997,165.77 C248.004,160.643 250.045,158.621 255.197,158.618 C260.907,158.615 266.627,158.417 272.297,158.701 C275.238,158.801 278.297,159.501 280.997,160.558 C285.768,162.458 288.197,166.558 288.897,171.458 C289.514,175.658 289.397,179.968 287.272,183.924 C284.609,188.895 280.347,191.47 274.851,191.793 C270.348,192.058 265.818,191.94 261.302,191.893 C259.616,191.871 258.925,192.423 258.97,194.166 C259.059,197.566 259.07,200.966 258.97,204.331 C258.925,208.053 256.798,210.302 253.434,210.231 C250.099,210.204 247.954,207.869 247.937,204.137 C247.976,197.6 248,191.1 248,184.595 L247.996,184.595 Z M259.057,175.2 C259.057,177.3 259.057,179.337 259.045,181.405 C259.019,182.605 259.445,183.205 260.745,183.178 C264.191,183.1 267.645,183.178 271.086,183.135 C275.011,183.077 277.824,180.254 278.071,176.222 C278.369,171.37 276.283,168.236 272.031,167.814 C268.243,167.438 264.409,167.54 260.596,167.407 C259.456,167.367 259.015,167.923 259.021,168.996 C259.071,171 259.1,173.1 259.1,175.161 L259.057,175.2 Z" id="Shape"></path>
                <path d="M313.547,184.872 C313.547,178.721 313.526,172.571 313.565,166.42 C313.573,165.176 313.689,163.905 313.967,162.695 C314.552,160.152 316.435,158.732 318.854,158.745 C326.927,158.745 335.053,158.587 343.054,159.447 C349.979,160.147 354.254,165.947 354.754,172.847 C355.025,176.861 354.737,180.723 352.714,184.284 C350.012,189.04 345.777,191.473 340.425,191.756 C335.981,191.991 331.516,191.838 327.06,191.856 C324.766,191.872 324.645,191.996 324.636,194.349 C324.623,197.849 324.636,201.253 324.617,204.705 C324.575,207.933 322.805,209.822 319.609,210.205 C316.829,210.507 314.322,208.663 313.877,205.713 C313.581,203.746 313.604,201.722 313.589,199.722 C313.522,194.8 313.5,189.8 313.5,184.872 L313.547,184.872 Z M324.615,175.035 C324.615,177.235 324.615,179.427 324.614,181.624 C324.612,182.624 324.914,183.124 326.014,183.126 C329.778,183.079 333.514,183.226 337.307,183.056 C340.954,182.906 343.56,179.844 343.656,175.934 C343.775,171.095 341.782,168.131 337.758,167.776 C333.897,167.435 330.001,167.502 326.121,167.368 C324.941,167.327 324.59,167.978 324.594,169.011 C324.617,171 324.6,173 324.6,175.035 L324.615,175.035 Z" id="Shape"></path>
                <path d="M198.711,158.619 C201.421,158.719 204.211,160.219 205.511,163.587 C207.368,168.187 209.011,172.987 210.711,177.687 C213.464,185.487 216.211,193.287 218.911,201.099 C219.259,202.099 219.611,203.099 219.811,204.161 C220.25,206.878 218.799,209.173 216.339,209.861 C213.449,210.634 210.978,209.464 209.932,206.715 C209.13,204.607 208.349,202.479 207.765,200.304 C207.28,198.498 206.391,197.805 204.459,197.858 C199.567,197.994 194.667,197.955 189.773,197.874 C188.326,197.85 187.621,198.373 187.208,199.721 C186.495,202.052 185.654,204.346 184.845,206.621 C183.705,209.864 181.26,210.532 177.962,209.708 C175.429,209.075 174.232,206.293 175.256,203.392 C178.446,194.358 181.76,185.367 185.032,176.362 C186.444,172.477 187.79,168.566 189.313,164.724 C190.904,160.6 193.8,158.6 198.7,158.619 L198.711,158.619 Z M190.772,189.3 L203.972,189.3 C201.813,182.974 199.759,176.959 197.706,170.943 C197.491,170.966 197.276,170.988 197.06,171.043 C194.966,177 192.9,183 190.8,189.258 L190.772,189.3 Z" id="Shape"></path>
                <path d="M136.774,183.888 C136.774,177.364 136.755,170.839 136.782,164.315 C136.796,160.886 138.436,158.96 141.508,158.632 C144.696,158.292 147.008,160.032 147.608,163.352 C147.774,164.252 147.808,165.052 147.808,165.963 C147.821,176.763 147.808,187.543 147.781,198.363 C147.771,199.963 148.181,200.563 149.881,200.501 C155.274,200.401 160.671,200.44 166.065,200.474 C169.695,200.474 171.265,202.074 171.165,205.374 C171.085,207.814 169.641,209.479 167.204,209.499 C158.61,209.569 150.015,209.582 141.422,209.494 C138.57,209.465 136.826,207.497 136.791,204.387 C136.714,197.55 136.767,190.712 136.767,183.874 C136.796,183.9 136.8,183.9 136.8,183.888 L136.774,183.888 Z" id="Shape"></path>
                <path d="M294.699,184.359 C294.699,177.776 294.695,171.194 294.701,164.611 C294.704,160.873 296.733,158.654 300.154,158.62 C303.556,158.587 305.654,160.82 305.654,164.535 C305.661,177.835 305.654,191.135 305.654,204.408 C305.653,207.923 303.487,210.358 300.196,210.208 C297.147,210.085 294.635,208.497 294.656,204.466 C294.725,197.8 294.7,191.1 294.7,184.359 L294.699,184.359 Z" id="Shape"></path>
            </g>
        </g>
    </g>
</svg>